<svg width="190" height="300" viewBox="0 0 190 300" fill="none" xmlns="http://www.w3.org/2000/svg">
<rect width="190" height="300" fill="#EEE"/>
<path d="M128.188 194H64.6875V180.25L93.9375 149.5C101.146 141.292 104.75 134.771 104.75 129.938C104.75 126.021 103.896 123.042 102.188 121C100.479 118.958 98 117.938 94.75 117.938C91.5417 117.938 88.9375 119.312 86.9375 122.062C84.9375 124.771 83.9375 128.167 83.9375 132.25H62.8125C62.8125 126.667 64.2083 121.521 67 116.812C69.7917 112.062 73.6667 108.354 78.625 105.688C83.5833 103.021 89.125 101.688 95.25 101.688C105.083 101.688 112.646 103.958 117.938 108.5C123.271 113.042 125.938 119.562 125.938 128.062C125.938 131.646 125.271 135.146 123.938 138.562C122.604 141.938 120.521 145.5 117.688 149.25C114.896 152.958 110.375 157.938 104.125 164.188L92.375 177.75H128.188V194Z" fill="black" fill-opacity="0.3"/>
</svg>
