<svg width="1290" height="300" viewBox="0 0 1290 300" fill="none" xmlns="http://www.w3.org/2000/svg">
<rect width="1290" height="300" fill="#EEEEEE"/>
<path d="M623.125 194H602V126.75L581.25 132.812V116.812L621.188 103H623.125V194ZM714.062 194H650.562V180.25L679.812 149.5C687.021 141.292 690.625 134.771 690.625 129.938C690.625 126.021 689.771 123.042 688.062 121C686.354 118.958 683.875 117.938 680.625 117.938C677.417 117.938 674.812 119.312 672.812 122.062C670.812 124.771 669.812 128.167 669.812 132.25H648.688C648.688 126.667 650.083 121.521 652.875 116.812C655.667 112.062 659.542 108.354 664.5 105.688C669.458 103.021 675 101.688 681.125 101.688C690.958 101.688 698.521 103.958 703.812 108.5C709.146 113.042 711.812 119.562 711.812 128.062C711.812 131.646 711.146 135.146 709.812 138.562C708.479 141.938 706.396 145.5 703.562 149.25C700.771 152.958 696.25 157.938 690 164.188L678.25 177.75H714.062V194Z" fill="black" fill-opacity="0.3"/>
</svg>
