<svg width="960" height="300" viewBox="0 0 960 300" fill="none" xmlns="http://www.w3.org/2000/svg">
<g clip-path="url(#clip0)">
<path d="M960 0H0V300H960V0Z" fill="#EEEEEE"/>
<path d="M490 158.812C485.458 162.896 480.375 164.938 474.75 164.938C466.5 164.938 459.958 162.146 455.125 156.562C450.292 150.979 447.875 143.521 447.875 134.188C447.875 128.354 449.229 122.938 451.938 117.938C454.646 112.938 458.438 108.979 463.312 106.062C468.229 103.146 473.646 101.688 479.562 101.688C485.562 101.688 490.979 103.208 495.812 106.25C500.688 109.25 504.479 113.521 507.188 119.062C509.896 124.562 511.292 130.917 511.375 138.125V146.188C511.375 156.229 509.396 164.938 505.438 172.312C501.521 179.688 495.917 185.354 488.625 189.312C481.333 193.271 472.833 195.25 463.125 195.25H461.812V178.375L465.812 178.312C480.312 177.604 488.375 171.104 490 158.812ZM480.438 149.75C485.021 149.75 488.312 147.771 490.312 143.812V135.062C490.312 129.229 489.333 124.917 487.375 122.125C485.417 119.333 482.771 117.938 479.438 117.938C476.479 117.938 474 119.521 472 122.688C470 125.854 469 129.688 469 134.188C469 138.938 470.021 142.729 472.062 145.562C474.104 148.354 476.896 149.75 480.438 149.75Z" fill="black" fill-opacity="0.3"/>
</g>
<defs>
<clipPath id="clip0">
<rect width="960" height="300" fill="white"/>
</clipPath>
</defs>
</svg>
