<svg width="850" height="300" viewBox="0 0 850 300" fill="none" xmlns="http://www.w3.org/2000/svg">
<g clip-path="url(#clip0)">
<path d="M850 0H0V300H850V0Z" fill="#EEEEEE"/>
<path d="M454.875 127.312C454.875 131.729 453.771 135.625 451.562 139C449.396 142.375 446.396 145.083 442.562 147.125C446.896 149.25 450.333 152.167 452.875 155.875C455.417 159.542 456.688 163.896 456.688 168.938C456.688 177.062 453.875 183.479 448.25 188.188C442.667 192.896 434.958 195.25 425.125 195.25C415.25 195.25 407.458 192.896 401.75 188.188C396.042 183.438 393.188 177.021 393.188 168.938C393.188 164.062 394.438 159.75 396.938 156C399.438 152.25 402.979 149.292 407.562 147.125C403.688 145.083 400.646 142.375 398.438 139C396.229 135.625 395.125 131.729 395.125 127.312C395.125 119.396 397.812 113.146 403.188 108.562C408.562 103.979 415.812 101.688 424.938 101.688C434.146 101.688 441.438 103.979 446.812 108.562C452.188 113.146 454.875 119.396 454.875 127.312ZM435.562 167.25C435.562 163.5 434.583 160.625 432.625 158.625C430.708 156.583 428.167 155.562 425 155.562C421.833 155.562 419.271 156.583 417.312 158.625C415.354 160.625 414.375 163.5 414.375 167.25C414.375 170.875 415.354 173.75 417.312 175.875C419.312 177.958 421.917 179 425.125 179C428.25 179 430.771 177.958 432.688 175.875C434.604 173.792 435.562 170.917 435.562 167.25ZM424.938 117.938C422.104 117.938 419.938 118.875 418.438 120.75C416.979 122.583 416.25 125.146 416.25 128.438C416.25 131.688 417 134.312 418.5 136.312C420 138.312 422.208 139.312 425.125 139.312C428 139.312 430.146 138.312 431.562 136.312C433.021 134.312 433.75 131.688 433.75 128.438C433.75 125.188 433 122.625 431.5 120.75C430.042 118.875 427.854 117.938 424.938 117.938Z" fill="black" fill-opacity="0.3"/>
</g>
<defs>
<clipPath id="clip0">
<rect width="850" height="300" fill="white"/>
</clipPath>
</defs>
</svg>
