<svg width="520" height="300" viewBox="0 0 520 300" fill="none" xmlns="http://www.w3.org/2000/svg">
<rect width="520" height="300" fill="#EEE"/>
<path d="M229.75 149.5L235.312 103H288.5V119.375H252.438L250.375 137.438C251.875 136.562 253.833 135.792 256.25 135.125C258.708 134.458 261.104 134.125 263.438 134.125C272.479 134.125 279.417 136.812 284.25 142.188C289.125 147.521 291.562 155.021 291.562 164.688C291.562 170.521 290.25 175.812 287.625 180.562C285.042 185.271 281.396 188.896 276.688 191.438C271.979 193.979 266.417 195.25 260 195.25C254.292 195.25 248.938 194.083 243.938 191.75C238.938 189.375 235.021 186.146 232.188 182.062C229.354 177.938 227.958 173.292 228 168.125H249.125C249.333 171.458 250.396 174.104 252.312 176.062C254.229 178.021 256.75 179 259.875 179C266.958 179 270.5 173.75 270.5 163.25C270.5 153.542 266.167 148.688 257.5 148.688C252.583 148.688 248.917 150.271 246.5 153.438L229.75 149.5Z" fill="black" fill-opacity="0.3"/>
</svg>
