<svg width="630" height="300" viewBox="0 0 630 300" fill="none" xmlns="http://www.w3.org/2000/svg">
<rect width="630" height="300" fill="#EEE"/>
<path d="M334.375 101.688V118.25H333.438C325.562 118.25 319.083 120.146 314 123.938C308.958 127.688 305.854 132.917 304.688 139.625C309.438 134.958 315.438 132.625 322.688 132.625C330.562 132.625 336.833 135.5 341.5 141.25C346.167 147 348.5 154.542 348.5 163.875C348.5 169.667 347.125 174.979 344.375 179.812C341.667 184.646 337.854 188.438 332.938 191.188C328.062 193.896 322.646 195.25 316.688 195.25C310.229 195.25 304.458 193.792 299.375 190.875C294.292 187.917 290.333 183.708 287.5 178.25C284.667 172.792 283.208 166.5 283.125 159.375V150.938C283.125 141.562 285.125 133.146 289.125 125.688C293.167 118.188 298.917 112.312 306.375 108.062C313.833 103.812 322.104 101.688 331.188 101.688H334.375ZM315.375 148.75C312.583 148.75 310.25 149.396 308.375 150.688C306.5 151.979 305.104 153.562 304.188 155.438V161.75C304.188 173.25 308.167 179 316.125 179C319.333 179 322 177.562 324.125 174.688C326.292 171.812 327.375 168.208 327.375 163.875C327.375 159.417 326.271 155.792 324.062 153C321.896 150.167 319 148.75 315.375 148.75Z" fill="black" fill-opacity="0.3"/>
</svg>
