<svg width="1070" height="300" viewBox="0 0 1070 300" fill="none" xmlns="http://www.w3.org/2000/svg">
<g clip-path="url(#clip0)">
<path d="M1070 0H0V300H1070V0Z" fill="#EEEEEE"/>
<path d="M513.125 194H492V126.75L471.25 132.812V116.812L511.188 103H513.125V194ZM603.75 156.812C603.75 169.104 600.979 178.583 595.438 185.25C589.938 191.917 582.167 195.25 572.125 195.25C562 195.25 554.167 191.896 548.625 185.188C543.083 178.479 540.312 169.021 540.312 156.812V140.188C540.312 127.896 543.062 118.417 548.562 111.75C554.104 105.083 561.917 101.75 572 101.75C582.083 101.75 589.896 105.104 595.438 111.812C600.979 118.521 603.75 128 603.75 140.25V156.812ZM582.688 137.5C582.688 130.958 581.833 126.083 580.125 122.875C578.417 119.625 575.708 118 572 118C568.375 118 565.729 119.5 564.062 122.5C562.438 125.5 561.562 130.042 561.438 136.125V159.375C561.438 166.167 562.292 171.146 564 174.312C565.708 177.438 568.417 179 572.125 179C575.708 179 578.354 177.479 580.062 174.438C581.771 171.354 582.646 166.542 582.688 160V137.5Z" fill="black" fill-opacity="0.3"/>
</g>
<defs>
<clipPath id="clip0">
<rect width="1070" height="300" fill="white"/>
</clipPath>
</defs>
</svg>
