<svg width="300" height="300" viewBox="0 0 300 300" fill="none" xmlns="http://www.w3.org/2000/svg">
<rect width="300" height="300" fill="#EEE"/>
<path d="M139.625 139.688H149.562C157.438 139.688 161.375 135.833 161.375 128.125C161.375 125.125 160.438 122.688 158.562 120.812C156.688 118.896 154.042 117.938 150.625 117.938C147.833 117.938 145.396 118.75 143.312 120.375C141.271 122 140.25 124.021 140.25 126.438H119.188C119.188 121.646 120.521 117.375 123.188 113.625C125.854 109.875 129.542 106.958 134.25 104.875C139 102.75 144.208 101.688 149.875 101.688C160 101.688 167.958 104 173.75 108.625C179.542 113.25 182.438 119.604 182.438 127.688C182.438 131.604 181.229 135.312 178.812 138.812C176.438 142.271 172.958 145.083 168.375 147.25C173.208 149 177 151.667 179.75 155.25C182.5 158.792 183.875 163.188 183.875 168.438C183.875 176.562 180.75 183.062 174.5 187.938C168.25 192.812 160.042 195.25 149.875 195.25C143.917 195.25 138.375 194.125 133.25 191.875C128.167 189.583 124.312 186.438 121.688 182.438C119.062 178.396 117.75 173.812 117.75 168.688H138.938C138.938 171.479 140.062 173.896 142.312 175.938C144.562 177.979 147.333 179 150.625 179C154.333 179 157.292 177.979 159.5 175.938C161.708 173.854 162.812 171.208 162.812 168C162.812 163.417 161.667 160.167 159.375 158.25C157.083 156.333 153.917 155.375 149.875 155.375H139.625V139.688Z" fill="black" fill-opacity="0.3"/>
</svg>
